<?xml version="1.0" encoding="UTF-8" standalone="no"?>
<svg
   xmlns:dc="http://purl.org/dc/elements/1.1/"
   xmlns:cc="http://creativecommons.org/ns#"
   xmlns:rdf="http://www.w3.org/1999/02/22-rdf-syntax-ns#"
   xmlns:svg="http://www.w3.org/2000/svg"
   xmlns="http://www.w3.org/2000/svg"
   xmlns:xlink="http://www.w3.org/1999/xlink"
   version="1.1"
   id="Layer_1"
   x="0px"
   y="0px"
   width="150px"
   height="150px"
   viewBox="0 0 136.062 221.103"
   enable-background="new 0 0 136.062 221.103"
   xml:space="preserve"><title
     id="title3429">Chromatic Logo</title><metadata
     id="metadata45"><rdf:RDF><cc:Work
         rdf:about=""><dc:format>image/svg+xml</dc:format><dc:type
           rdf:resource="http://purl.org/dc/dcmitype/StillImage" /><dc:title>Chromatic Logo</dc:title><cc:license
           rdf:resource="http://creativecommons.org/publicdomain/zero/1.0/" /></cc:Work><cc:License
         rdf:about="http://creativecommons.org/publicdomain/zero/1.0/"><cc:permits
           rdf:resource="http://creativecommons.org/ns#Reproduction" /><cc:permits
           rdf:resource="http://creativecommons.org/ns#Distribution" /><cc:permits
           rdf:resource="http://creativecommons.org/ns#DerivativeWorks" /></cc:License></rdf:RDF></metadata><defs
     id="defs43"><linearGradient
       id="linearGradient3823"><stop
         style="stop-color:#d0e2f1;stop-opacity:1"
         offset="0"
         id="stop3825" /><stop
         id="stop3827"
         offset="0.90178573"
         style="stop-color:#cadef0;stop-opacity:1" /><stop
         style="stop-color:#95bee3;stop-opacity:1"
         offset="1"
         id="stop3829" /></linearGradient><linearGradient
       id="linearGradient3811"><stop
         id="stop3813"
         offset="0"
         style="stop-color:#96d0e1;stop-opacity:1" /><stop
         style="stop-color:#89b7e1;stop-opacity:1"
         offset="0.65261745"
         id="stop3815" /><stop
         id="stop3817"
         offset="1"
         style="stop-color:#699dd3;stop-opacity:1" /></linearGradient><linearGradient
       xlink:href="#linearGradient3708"
       id="linearGradient3849"
       gradientUnits="userSpaceOnUse"
       x1="21.525999"
       y1="60.463505"
       x2="95.334396"
       y2="60.463505" /><linearGradient
       xlink:href="#linearGradient3708"
       id="linearGradient3851"
       gradientUnits="userSpaceOnUse"
       x1="21.525999"
       y1="60.463505"
       x2="95.334396"
       y2="60.463505" /><linearGradient
       xlink:href="#linearGradient3708"
       id="linearGradient3853"
       gradientUnits="userSpaceOnUse"
       x1="21.525999"
       y1="60.463505"
       x2="95.334396"
       y2="60.463505" /><linearGradient
       xlink:href="#linearGradient3811"
       id="linearGradient3056"
       gradientUnits="userSpaceOnUse"
       x1="1.6967226"
       y1="145.54208"
       x2="60.572475"
       y2="129.61517"
       gradientTransform="matrix(1.5934725,0,0,0.9455374,-42.00733,8.3859992)" /><linearGradient
       xlink:href="#linearGradient3708"
       id="linearGradient3065"
       gradientUnits="userSpaceOnUse"
       x1="20.58778"
       y1="58.189503"
       x2="95.334396"
       y2="58.189503"
       gradientTransform="matrix(1.5934725,0,0,0.9455374,-42.00733,8.3859992)" /><linearGradient
       xlink:href="#linearGradient3708"
       id="linearGradient3068"
       gradientUnits="userSpaceOnUse"
       gradientTransform="matrix(1.5934725,0,0,0.9455374,-42.00733,8.3860004)"
       x1="20.58778"
       y1="58.189503"
       x2="95.334396"
       y2="58.189503" /><linearGradient
       xlink:href="#linearGradient3823"
       id="linearGradient3831"
       gradientUnits="userSpaceOnUse"
       gradientTransform="matrix(1.5934725,0,0,0.9455374,-41.13179,9.2945127)"
       x1="-29.756493"
       y1="33.895718"
       x2="113.42671"
       y2="87.766167" /></defs><defs
     id="defs3043"><linearGradient
       id="linearGradient3708"><stop
         style="stop-color:#658db6;stop-opacity:1"
         offset="0"
         id="stop3710" /><stop
         id="stop3716"
         offset="0.76777935"
         style="stop-color:#527fab;stop-opacity:1;" /><stop
         style="stop-color:#4071a0;stop-opacity:1"
         offset="1"
         id="stop3712" /></linearGradient></defs><path
     d="M 104.39136,12.286341 C 73.355299,6.3237821 30.686885,9.5783219 2.6863867,19.223749 -11.256498,24.028024 -27.065338,33.360479 -32.27918,42.52179 c -11.390142,20.069977 9.310659,46.338897 33.6844148,60.44915 -8.5043627,8.14202 -17.4102808,16.18193 -23.8957138,24.96692 -17.125049,23.09002 -26.671543,53.72921 6.633626,73.77839 31.472676,18.96937 89.926027,19.52535 124.394433,3.01626 38.39153,-18.38881 53.30643,-46.57528 58.70034,-74.13675 C 174.12491,95.507815 178.92126,26.609342 104.39136,12.286341 z M 8.0197391,170.90402 C 9.7404026,154.10995 26.956566,133.14777 41.685033,120.5759 c 0.121104,-0.0983 0.215118,-0.18438 0.31232,-0.28082 l 20.197264,-18.16661 c -5.954807,5.70537 -12.666513,11.7587 -20.197264,18.16661 l -8.483647,7.6494 c 12.806738,9.59436 27.224477,26.11479 28.731902,38.24982 2.536809,21.30442 -55.6680475,18.78572 -54.2258689,4.70972 z"
     id="path3"
     style="fill:none" /><g
     id="g7"
     style="opacity:0.90;fill:url(#linearGradient3853);fill-opacity:1"
     transform="matrix(1.5934725,0,0,0.9455374,-42.00733,8.3859992)"><path
       style="fill:url(#linearGradient3849);fill-opacity:1;stroke:#000000;stroke-width:1;stroke-linecap:round;stroke-linejoin:round"
       id="path9"
       d="m 93.354,18.184 c 0.254,0.433 0.494,1.053 0.694,1.866" /><path
       style="fill:url(#linearGradient3851);fill-opacity:1;stroke:#000000;stroke-width:1;stroke-linecap:round;stroke-linejoin:round"
       id="path13"
       d="m 23.746,36.446 c -0.477,-0.434 -0.967,-0.885 -1.47,-1.357" /></g><path
     style="fill:none;stroke:#000000;stroke-width:1.84120822;stroke-linecap:round;stroke-linejoin:round;stroke-miterlimit:10"
     stroke-miterlimit="10"
     d="M 4.1730965,47.201255 C 1.0785729,45.578713 -2.4493752,43.829469 -6.5111366,41.563961"
     id="path15" /><path
     style="fill:none;stroke:#000000;stroke-width:1.84120822;stroke-linecap:round;stroke-linejoin:round;stroke-miterlimit:10"
     stroke-miterlimit="10"
     d="m 106.7497,25.579651 c 1.05647,1.071294 1.97113,3.354767 1.95838,6.936463"
     id="path17" /><g
     id="g21"
     transform="matrix(1.5934725,0,0,0.9455374,-42.00733,8.3859992)"><g
       id="g23"><path
         style="fill:none;stroke:#dadad9;stroke-width:1.5;stroke-linecap:round;stroke-linejoin:round"
         d="m 33.246,89.923 c 0.415,0.521 0.833,1.042 1.251,1.561"
         id="path25" /><path
         style="fill:none;stroke:#dadad9;stroke-width:1.5;stroke-linecap:round;stroke-linejoin:round;stroke-dasharray:4.2223, 4.2223"
         d="m 37.164,94.757 c 4.993,6.078 10.078,12.043 14.594,18.063"
         id="path27" /><path
         style="fill:none;stroke:#dadad9;stroke-width:1.5;stroke-linecap:round;stroke-linejoin:round"
         d="m 53.012,114.519 c 0.383,0.527 0.771,1.071 1.161,1.629"
         id="path29" /></g></g><path
     stroke-miterlimit="10"
     d="m 97.652567,21.279347 c 36.471403,8.737711 -43.390256,23.38314 -82.012842,23.38314 -38.600278,0 -18.3233406,-11.323756 -18.3233406,-11.323756"
     id="path31"
     style="opacity:0.95;fill:url(#linearGradient3065);fill-opacity:1;stroke:#000000;stroke-width:1.22747219;stroke-linecap:round;stroke-linejoin:round;stroke-miterlimit:10" /><path
     stroke-miterlimit="10"
     d="M 44.315856,118.20733 C 66.723266,137.1871 96.025632,173.77184 52.22904,186.9791 23.925782,195.31969 1.736785,181.77252 3.9883616,161.20708 6.5570393,144.06922 21.539363,124.14947 37.217539,110.46376 58.160548,92.195975 81.340189,75.311136 81.795922,52.522739 82.020602,41.315285 66.930417,13.991145 99.497808,13.987363 c 13.699082,-9.46e-4 24.104462,3.398261 31.957092,7.316568 30.42258,15.271375 30.08635,43.386929 31.51411,64.770258 2.55592,38.360451 -4.72146,81.436301 -52.55273,110.747011 -36.74388,23.18647 -121.425789,18.11083 -135.762262,-15.70632 -9.31544,-21.93552 4.4187,-46.42589 23.3125031,-65.16927 C 11.903032,102.12658 29.236825,88.317949 38.404073,73.062648 45.585853,61.131858 45.65756,48.559047 35.644178,37.314716 24.889832,25.235476 3.4608143,17.644701 -10.317942,24.792964 c -4.331059,2.246597 -8.891577,7.040472 -10.869076,12.232418 -8.525078,22.364796 10.11855,39.969756 32.157868,56.387122"
     style="fill:none;stroke:#326464;stroke-width:4.42206001;stroke-linecap:round;stroke-linejoin:round;stroke-miterlimit:10;stroke-opacity:1;stroke-dasharray:none"
     id="path80" /><path
     style="opacity:0.75000000000000000;fill:url(#linearGradient3068);fill-opacity:1;stroke:#000000;stroke-width:1.22785866;stroke-linecap:round;stroke-linejoin:round;stroke-dasharray:2.45571732,7.36715196;stroke-miterlimit:4;stroke-dashoffset:0"
     id="path11"
     d="m 108.13087,26.948725 c 0.76168,10.075647 -6.0118,36.954504 -45.934659,75.179745 C 48.933739,116.75688 5.2852383,89.234468 18.281881,76.77844 29.471131,66.054621 5.2804723,55.632367 -1.8342948,44.086656 c 0,0 19.6919438,2.255081 54.4547638,-2.305044 45.319132,-8.005281 7.967015,0.972581 45.514219,-9.270554 18.084862,-7.896433 9.996182,-5.562333 9.996182,-5.562333 z" /><path
     style="opacity:0.5;fill:url(#linearGradient3831);fill-opacity:1;stroke:#000000;stroke-width:1.22785866;stroke-linecap:round;stroke-linejoin:round;stroke-miterlimit:10;stroke-dasharray:none"
     d="m 169.70224,131.01071 c 6.19872,-25.64512 10.64885,-53.08957 2.93442,-78.919356 C 169.35503,38.152789 162.99372,23.63897 149.63827,16.709418 128.57012,4.8425949 103.4862,4.940014 79.98412,4.6681336 54.58392,4.3174798 28.855165,6.0774845 4.5683228,14.045022 -9.2431249,18.848538 -24.495092,24.354738 -32.915162,37.05027 c -5.154785,8.002438 0.945422,16.764513 4.992591,23.691551 9.301905,14.739377 22.3696234,26.569456 35.7934374,37.474582 2.5092356,-3.202755 6.9069406,-5.393177 6.9993026,-9.89152 0.560975,-4.572408 2.637296,-8.629751 4.616904,-12.719967 3.582329,-1.45134 6.249478,-3.159448 9.869738,-3.993129 8.328003,1.297716 9.724925,2.052543 15.784771,4.639269 11.04697,8.596516 5.840938,2.018823 12.553018,12.946903 1.572677,2.690793 2.957588,6.758573 0.569363,9.785916 -1.194922,3.790635 -3.226565,4.929035 -5.942171,7.868955"
     id="path3036" /><path
     style="opacity:0.8;fill:url(#linearGradient3056);fill-opacity:1;stroke:#323232;stroke-width:1.22747219;stroke-linecap:round;stroke-linejoin:round;stroke-miterlimit:10;stroke-opacity:1;stroke-dasharray:none"
     d="m 169.71813,130.57865 c -4.81911,23.36101 -29.51996,58.27006 -59.95286,73.58589 -33.345475,16.11253 -85.302083,16.93753 -119.1547581,0.92608 -22.3613519,-9.93434 -30.7185939,-27.4406 -28.3817889,-43.40035 1.982367,-14.48016 5.175566,-21.00084 15.755905,-33.98578 5.286581,-5.25756 26.2668467,-25.83316 30.1085304,-29.000375 3.8416836,-3.167212 6.5933306,-6.643077 7.5197606,-13.135241 0.420687,-7.555652 5.881665,-17.303973 22.379219,-12.171844 18.520832,5.894232 28.381876,21.817524 15.034867,32.42347 -13.86537,15.95354 -30.366057,31.15159 -42.006609,47.75308 -5.6447504,10.22169 -2.4482063,23.37223 12.815074,30.05891 17.390851,6.01645 43.164934,-2.05817 43.71894,-14.17324 C 70.922754,154.8666 52.304024,132.1464 40.080678,120.31989 l 11.922538,-13.45996"
     id="path39" /></svg>